<svg xmlns="http://www.w3.org/2000/svg" xmlns:xlink="http://www.w3.org/1999/xlink" contentStyleType="text/css" data-diagram-type="SEQUENCE" height="481px" preserveAspectRatio="none" style="width:436px;height:481px;background:#FFFFFF;" version="1.1" viewBox="0 0 436 481" width="436px" zoomAndPan="magnify"><defs/><g><g><title>game_scene : GameScene</title><rect fill="#FFFFFF" height="359.8001" style="stroke:#181818;stroke-width:1;" width="10" x="116.8186" y="76.3999"/></g><g><title>_laser_canon : LaserCanon</title><rect fill="#FFFFFF" height="29.6" style="stroke:#181818;stroke-width:1;" width="10" x="311.6249" y="135.6"/></g><g><title>_laser_canon : LaserCanon</title><rect fill="#FFFFFF" height="29.6" style="stroke:#181818;stroke-width:1;" width="10" x="311.6249" y="219.4"/></g><g><title>_laser_canon : LaserCanon</title><rect fill="#FFFFFF" height="29.6" style="stroke:#181818;stroke-width:1;" width="10" x="311.6249" y="300.7999"/></g><g><title>_laser_canon : LaserCanon</title><rect fill="#FFFFFF" height="29.6" style="stroke:#181818;stroke-width:1;" width="10" x="311.6249" y="384.6"/></g><rect fill="none" height="332.8001" style="stroke:#000000;stroke-width:1.5;" width="419.6125" x="10" y="96.3999"/><rect fill="none" height="76.8" style="stroke:#000000;stroke-width:1.5;" width="399.6125" x="20" y="180.2"/><rect fill="none" height="76.8" style="stroke:#000000;stroke-width:1.5;" width="399.6125" x="20" y="345.4"/><g><title>game_scene : GameScene</title><rect fill="#000000" fill-opacity="0.00000" height="409.4001" width="8" x="117.8186" y="36.7999"/><line style="stroke:#181818;stroke-width:0.5;stroke-dasharray:5.0,5.0;" x1="121" x2="121" y1="36.7999" y2="446.2"/></g><g><title>_laser_canon : LaserCanon</title><rect fill="#000000" fill-opacity="0.00000" height="409.4001" width="8" x="312.6249" y="36.7999"/><line style="stroke:#181818;stroke-width:0.5;stroke-dasharray:5.0,5.0;" x1="315.6373" x2="315.6373" y1="36.7999" y2="446.2"/></g><g class="participant participant-head" data-participant="Scene"><rect fill="#E2E2F0" height="30.7999" rx="2.5" ry="2.5" style="stroke:#181818;stroke-width:0.5;" width="183.6373" x="30" y="5"/><text fill="#000000" font-family="sans-serif" font-size="14" lengthAdjust="spacing" textLength="169.6373" x="37" y="25.0059">game_scene : GameScene</text></g><g class="participant participant-tail" data-participant="Scene"><rect fill="#E2E2F0" height="30.7999" rx="2.5" ry="2.5" style="stroke:#181818;stroke-width:0.5;" width="183.6373" x="30" y="445.2"/><text fill="#000000" font-family="sans-serif" font-size="14" lengthAdjust="spacing" textLength="169.6373" x="37" y="465.2059">game_scene : GameScene</text></g><g class="participant participant-head" data-participant="Cannon"><rect fill="#E2E2F0" height="30.7999" rx="2.5" ry="2.5" style="stroke:#181818;stroke-width:0.5;" width="185.9753" x="223.6373" y="5"/><text fill="#000000" font-family="sans-serif" font-size="14" lengthAdjust="spacing" textLength="171.9753" x="230.6373" y="25.0059">_laser_canon : LaserCanon</text></g><g class="participant participant-tail" data-participant="Cannon"><rect fill="#E2E2F0" height="30.7999" rx="2.5" ry="2.5" style="stroke:#181818;stroke-width:0.5;" width="185.9753" x="223.6373" y="445.2"/><text fill="#000000" font-family="sans-serif" font-size="14" lengthAdjust="spacing" textLength="171.9753" x="230.6373" y="465.2059">_laser_canon : LaserCanon</text></g><g><title>game_scene : GameScene</title><rect fill="#FFFFFF" height="359.8001" style="stroke:#181818;stroke-width:1;" width="10" x="116.8186" y="76.3999"/></g><g><title>_laser_canon : LaserCanon</title><rect fill="#FFFFFF" height="29.6" style="stroke:#181818;stroke-width:1;" width="10" x="311.6249" y="135.6"/></g><g><title>_laser_canon : LaserCanon</title><rect fill="#FFFFFF" height="29.6" style="stroke:#181818;stroke-width:1;" width="10" x="311.6249" y="219.4"/></g><g><title>_laser_canon : LaserCanon</title><rect fill="#FFFFFF" height="29.6" style="stroke:#181818;stroke-width:1;" width="10" x="311.6249" y="300.7999"/></g><g><title>_laser_canon : LaserCanon</title><rect fill="#FFFFFF" height="29.6" style="stroke:#181818;stroke-width:1;" width="10" x="311.6249" y="384.6"/></g><g class="message" data-participant-1="Scene" data-participant-2="Scene"><line style="stroke:#181818;stroke-width:1;" x1="121.8186" x2="168.8186" y1="63.3999" y2="63.3999"/><line style="stroke:#181818;stroke-width:1;" x1="168.8186" x2="168.8186" y1="63.3999" y2="76.3999"/><line style="stroke:#181818;stroke-width:1;" x1="127.8186" x2="168.8186" y1="76.3999" y2="76.3999"/><polygon fill="#181818" points="137.8186,72.3999,127.8186,76.3999,137.8186,80.3999,133.8186,76.3999" style="stroke:#181818;stroke-width:1;"/><text fill="#000000" font-family="sans-serif" font-size="13" lengthAdjust="spacing" textLength="141.6091" x="133.8186" y="57.8769">keyReleaseEvent(event)</text></g><path d="M10,96.3999 L70.171,96.3999 L70.171,104 L60.171,114 L10,114 L10,96.3999" fill="#EEEEEE" style="stroke:#000000;stroke-width:1.5;"/><rect fill="none" height="332.8001" style="stroke:#000000;stroke-width:1.5;" width="419.6125" x="10" y="96.3999"/><text fill="#000000" font-family="sans-serif" font-size="13" font-weight="bold" lengthAdjust="spacing" textLength="15.171" x="25" y="109.477">alt</text><text fill="#000000" font-family="sans-serif" font-size="11" font-weight="bold" lengthAdjust="spacing" textLength="142.427" x="85.171" y="108.6189">[event.key == Qt::Key_Left]</text><g class="message" data-participant-1="Scene" data-participant-2="Cannon"><polygon fill="#181818" points="299.6249,131.6,309.6249,135.6,299.6249,139.6,303.6249,135.6" style="stroke:#181818;stroke-width:1;"/><line style="stroke:#181818;stroke-width:1;" x1="126.8186" x2="305.6249" y1="135.6" y2="135.6"/><text fill="#000000" font-family="sans-serif" font-size="13" lengthAdjust="spacing" textLength="80.9121" x="133.8186" y="130.077">getXVelocity()</text></g><g class="message" data-participant-1="Cannon" data-participant-2="Scene"><polygon fill="#181818" points="137.8186,161.2,127.8186,165.2,137.8186,169.2,133.8186,165.2" style="stroke:#181818;stroke-width:1;"/><line style="stroke:#181818;stroke-width:1;stroke-dasharray:2.0,2.0;" x1="131.8186" x2="315.6249" y1="165.2" y2="165.2"/><text fill="#000000" font-family="sans-serif" font-size="13" lengthAdjust="spacing" textLength="43.342" x="143.8186" y="159.677">velocity</text></g><path d="M20,180.2 L80.171,180.2 L80.171,187.8 L70.171,197.8 L20,197.8 L20,180.2" fill="#EEEEEE" style="stroke:#000000;stroke-width:1.5;"/><rect fill="none" height="76.8" style="stroke:#000000;stroke-width:1.5;" width="399.6125" x="20" y="180.2"/><text fill="#000000" font-family="sans-serif" font-size="13" font-weight="bold" lengthAdjust="spacing" textLength="15.171" x="35" y="193.277">alt</text><text fill="#000000" font-family="sans-serif" font-size="11" font-weight="bold" lengthAdjust="spacing" textLength="66.9455" x="95.171" y="192.4189">[velocity &lt; 0]</text><g class="message" data-participant-1="Scene" data-participant-2="Cannon"><polygon fill="#181818" points="299.6249,215.4,309.6249,219.4,299.6249,223.4,303.6249,219.4" style="stroke:#181818;stroke-width:1;"/><line style="stroke:#181818;stroke-width:1;" x1="126.8186" x2="305.6249" y1="219.4" y2="219.4"/><text fill="#000000" font-family="sans-serif" font-size="13" lengthAdjust="spacing" textLength="87.4121" x="133.8186" y="213.877">setXVelocity(0)</text></g><g class="message" data-participant-1="Cannon" data-participant-2="Scene"><polygon fill="#181818" points="137.8186,245,127.8186,249,137.8186,253,133.8186,249" style="stroke:#181818;stroke-width:1;"/><line style="stroke:#181818;stroke-width:1;stroke-dasharray:2.0,2.0;" x1="131.8186" x2="315.6249" y1="249" y2="249"/><text fill="#000000" font-family="sans-serif" font-size="13" lengthAdjust="spacing" textLength="23.842" x="143.8186" y="243.477">void</text></g><line style="stroke:#000000;stroke-width:1;stroke-dasharray:2.0,2.0;" x1="10" x2="429.6125" y1="265" y2="265"/><text fill="#000000" font-family="sans-serif" font-size="11" font-weight="bold" lengthAdjust="spacing" textLength="150.3689" x="15" y="275.2189">[event.key == Qt::Key_Right]</text><g class="message" data-participant-1="Scene" data-participant-2="Cannon"><polygon fill="#181818" points="299.6249,296.7999,309.6249,300.7999,299.6249,304.7999,303.6249,300.7999" style="stroke:#181818;stroke-width:1;"/><line style="stroke:#181818;stroke-width:1;" x1="126.8186" x2="305.6249" y1="300.7999" y2="300.7999"/><text fill="#000000" font-family="sans-serif" font-size="13" lengthAdjust="spacing" textLength="80.9121" x="133.8186" y="295.2769">getXVelocity()</text></g><g class="message" data-participant-1="Cannon" data-participant-2="Scene"><polygon fill="#181818" points="137.8186,326.4,127.8186,330.4,137.8186,334.4,133.8186,330.4" style="stroke:#181818;stroke-width:1;"/><line style="stroke:#181818;stroke-width:1;stroke-dasharray:2.0,2.0;" x1="131.8186" x2="315.6249" y1="330.4" y2="330.4"/><text fill="#000000" font-family="sans-serif" font-size="13" lengthAdjust="spacing" textLength="43.342" x="143.8186" y="324.8769">velocity</text></g><path d="M20,345.4 L80.171,345.4 L80.171,353 L70.171,363 L20,363 L20,345.4" fill="#EEEEEE" style="stroke:#000000;stroke-width:1.5;"/><rect fill="none" height="76.8" style="stroke:#000000;stroke-width:1.5;" width="399.6125" x="20" y="345.4"/><text fill="#000000" font-family="sans-serif" font-size="13" font-weight="bold" lengthAdjust="spacing" textLength="15.171" x="35" y="358.477">alt</text><text fill="#000000" font-family="sans-serif" font-size="11" font-weight="bold" lengthAdjust="spacing" textLength="66.9455" x="95.171" y="357.6189">[velocity &gt; 0]</text><g class="message" data-participant-1="Scene" data-participant-2="Cannon"><polygon fill="#181818" points="299.6249,380.6,309.6249,384.6,299.6249,388.6,303.6249,384.6" style="stroke:#181818;stroke-width:1;"/><line style="stroke:#181818;stroke-width:1;" x1="126.8186" x2="305.6249" y1="384.6" y2="384.6"/><text fill="#000000" font-family="sans-serif" font-size="13" lengthAdjust="spacing" textLength="87.4121" x="133.8186" y="379.077">setXVelocity(0)</text></g><g class="message" data-participant-1="Cannon" data-participant-2="Scene"><polygon fill="#181818" points="137.8186,410.2,127.8186,414.2,137.8186,418.2,133.8186,414.2" style="stroke:#181818;stroke-width:1;"/><line style="stroke:#181818;stroke-width:1;stroke-dasharray:2.0,2.0;" x1="131.8186" x2="315.6249" y1="414.2" y2="414.2"/><text fill="#000000" font-family="sans-serif" font-size="13" lengthAdjust="spacing" textLength="23.842" x="143.8186" y="408.677">void</text></g><!--SRC=[lOynZy8m38Nd-5TOJ31mOew0vNHYE1P0Eh5LLkhhHOIq8bQb_ljBqXvNgPrP4bj-pvzVGm-nnZRa1HSLtRa8XZsZnaDiBgbU80NC5JHZTU4eyACmv6iVzSVKlQSc6s8LIu1inFM-tw3nnjsP7KVnHyjUbfpU5P0HsvBm009oWddq5Wsus-59jFxahZZoju1wRkqn6YkMwnUxsbZfbYjGptt37Qh_SVr_IJl8GPKyaIV-dm2tk04rPOOnSnEXK-eSjhPb7CmmsPS0x0BF9p_RwkVbqVUlYvxZZsRPz0i0]--></g></svg>