<svg xmlns="http://www.w3.org/2000/svg" xmlns:xlink="http://www.w3.org/1999/xlink" contentStyleType="text/css" data-diagram-type="SEQUENCE" height="596px" preserveAspectRatio="none" style="width:695px;height:596px;background:#FFFFFF;" version="1.1" viewBox="0 0 695 596" width="695px" zoomAndPan="magnify"><defs/><g><g><title>game_scene : GameScene</title><rect fill="#FFFFFF" height="474.4002" style="stroke:#181818;stroke-width:1;" width="10" x="126.8186" y="76.3999"/></g><g><title>_laser_canon : LaserCanon</title><rect fill="#FFFFFF" height="29.6" style="stroke:#181818;stroke-width:1;" width="10" x="321.6249" y="306.6"/></g><g><title>_laser_canon : LaserCanon</title><rect fill="#FFFFFF" height="29.6" style="stroke:#181818;stroke-width:1;" width="10" x="321.6249" y="449.6001"/></g><g><title>_bullets : Bullet[]</title><rect fill="#FFFFFF" height="29.6" style="stroke:#181818;stroke-width:1;" width="10" x="482.9713" y="178.2"/></g><g><title>_bullets : Bullet[]</title><rect fill="#FFFFFF" height="29.6" style="stroke:#181818;stroke-width:1;" width="10" x="482.9713" y="390.4001"/></g><rect fill="none" height="404.8002" style="stroke:#000000;stroke-width:1.5;" width="679.6322" x="10" y="139"/><rect fill="none" height="314.0001" style="stroke:#000000;stroke-width:1.5;" width="659.6322" x="20" y="222.8"/><rect fill="none" height="178.6001" style="stroke:#000000;stroke-width:1.5;" width="639.6322" x="30" y="351.2001"/><g><title>game_scene : GameScene</title><rect fill="#000000" fill-opacity="0.00000" height="524.0002" width="8" x="127.8186" y="36.7999"/><line style="stroke:#181818;stroke-width:0.5;stroke-dasharray:5.0,5.0;" x1="131" x2="131" y1="36.7999" y2="560.8001"/></g><g><title>_laser_canon : LaserCanon</title><rect fill="#000000" fill-opacity="0.00000" height="524.0002" width="8" x="322.6249" y="36.7999"/><line style="stroke:#181818;stroke-width:0.5;stroke-dasharray:5.0,5.0;" x1="325.6373" x2="325.6373" y1="36.7999" y2="560.8001"/></g><g><title>_bullets : Bullet[]</title><rect fill="#000000" fill-opacity="0.00000" height="524.0002" width="8" x="483.9713" y="36.7999"/><line style="stroke:#181818;stroke-width:0.5;stroke-dasharray:5.0,5.0;" x1="487.6125" x2="487.6125" y1="36.7999" y2="560.8001"/></g><g class="participant participant-head" data-participant="Scene"><rect fill="#E2E2F0" height="30.7999" rx="2.5" ry="2.5" style="stroke:#181818;stroke-width:0.5;" width="183.6373" x="40" y="5"/><text fill="#000000" font-family="sans-serif" font-size="14" lengthAdjust="spacing" textLength="169.6373" x="47" y="25.0059">game_scene : GameScene</text></g><g class="participant participant-tail" data-participant="Scene"><rect fill="#E2E2F0" height="30.7999" rx="2.5" ry="2.5" style="stroke:#181818;stroke-width:0.5;" width="183.6373" x="40" y="559.8001"/><text fill="#000000" font-family="sans-serif" font-size="14" lengthAdjust="spacing" textLength="169.6373" x="47" y="579.8061">game_scene : GameScene</text></g><g class="participant participant-head" data-participant="Cannon"><rect fill="#E2E2F0" height="30.7999" rx="2.5" ry="2.5" style="stroke:#181818;stroke-width:0.5;" width="185.9753" x="233.6373" y="5"/><text fill="#000000" font-family="sans-serif" font-size="14" lengthAdjust="spacing" textLength="171.9753" x="240.6373" y="25.0059">_laser_canon : LaserCanon</text></g><g class="participant participant-tail" data-participant="Cannon"><rect fill="#E2E2F0" height="30.7999" rx="2.5" ry="2.5" style="stroke:#181818;stroke-width:0.5;" width="185.9753" x="233.6373" y="559.8001"/><text fill="#000000" font-family="sans-serif" font-size="14" lengthAdjust="spacing" textLength="171.9753" x="240.6373" y="579.8061">_laser_canon : LaserCanon</text></g><g class="participant participant-head" data-participant="Bullets"><rect fill="#E2E2F0" height="30.7999" rx="2.5" ry="2.5" style="stroke:#181818;stroke-width:0.5;" width="116.7176" x="429.6125" y="5"/><text fill="#000000" font-family="sans-serif" font-size="14" lengthAdjust="spacing" textLength="102.7176" x="436.6125" y="25.0059">_bullets : Bullet[]</text></g><g class="participant participant-tail" data-participant="Bullets"><rect fill="#E2E2F0" height="30.7999" rx="2.5" ry="2.5" style="stroke:#181818;stroke-width:0.5;" width="116.7176" x="429.6125" y="559.8001"/><text fill="#000000" font-family="sans-serif" font-size="14" lengthAdjust="spacing" textLength="102.7176" x="436.6125" y="579.8061">_bullets : Bullet[]</text></g><g><title>game_scene : GameScene</title><rect fill="#FFFFFF" height="474.4002" style="stroke:#181818;stroke-width:1;" width="10" x="126.8186" y="76.3999"/></g><g><title>_laser_canon : LaserCanon</title><rect fill="#FFFFFF" height="29.6" style="stroke:#181818;stroke-width:1;" width="10" x="321.6249" y="306.6"/></g><g><title>_laser_canon : LaserCanon</title><rect fill="#FFFFFF" height="29.6" style="stroke:#181818;stroke-width:1;" width="10" x="321.6249" y="449.6001"/></g><g><title>_bullets : Bullet[]</title><rect fill="#FFFFFF" height="29.6" style="stroke:#181818;stroke-width:1;" width="10" x="482.9713" y="178.2"/></g><g><title>_bullets : Bullet[]</title><rect fill="#FFFFFF" height="29.6" style="stroke:#181818;stroke-width:1;" width="10" x="482.9713" y="390.4001"/></g><g class="message" data-participant-1="Scene" data-participant-2="Scene"><line style="stroke:#181818;stroke-width:1;" x1="131.8186" x2="178.8186" y1="63.3999" y2="63.3999"/><line style="stroke:#181818;stroke-width:1;" x1="178.8186" x2="178.8186" y1="63.3999" y2="76.3999"/><line style="stroke:#181818;stroke-width:1;" x1="137.8186" x2="178.8186" y1="76.3999" y2="76.3999"/><polygon fill="#181818" points="147.8186,72.3999,137.8186,76.3999,147.8186,80.3999,143.8186,76.3999" style="stroke:#181818;stroke-width:1;"/><text fill="#000000" font-family="sans-serif" font-size="13" lengthAdjust="spacing" textLength="171.2362" x="143.8186" y="57.8769">_checkShotsOnLaserCanon()</text></g><g class="message" data-participant-1="Scene" data-participant-2="Scene"><line style="stroke:#181818;stroke-width:1;" x1="136.8186" x2="178.8186" y1="111" y2="111"/><line style="stroke:#181818;stroke-width:1;" x1="178.8186" x2="178.8186" y1="111" y2="124"/><line style="stroke:#181818;stroke-width:1;" x1="137.8186" x2="178.8186" y1="124" y2="124"/><polygon fill="#181818" points="147.8186,120,137.8186,124,147.8186,128,143.8186,124" style="stroke:#181818;stroke-width:1;"/><text fill="#000000" font-family="sans-serif" font-size="13" lengthAdjust="spacing" textLength="127.5431" x="143.8186" y="105.477">continue_check = true</text></g><path d="M10,139 L82.443,139 L82.443,146.6 L72.443,156.6 L10,156.6 L10,139" fill="#EEEEEE" style="stroke:#000000;stroke-width:1.5;"/><rect fill="none" height="404.8002" style="stroke:#000000;stroke-width:1.5;" width="679.6322" x="10" y="139"/><text fill="#000000" font-family="sans-serif" font-size="13" font-weight="bold" lengthAdjust="spacing" textLength="27.443" x="25" y="152.077">loop</text><text fill="#000000" font-family="sans-serif" font-size="11" font-weight="bold" lengthAdjust="spacing" textLength="90.4633" x="97.443" y="151.2189">[continue_check]</text><g class="message" data-participant-1="Scene" data-participant-2="Bullets"><polygon fill="#181818" points="470.9713,174.2,480.9713,178.2,470.9713,182.2,474.9713,178.2" style="stroke:#181818;stroke-width:1;"/><line style="stroke:#181818;stroke-width:1;" x1="136.8186" x2="476.9713" y1="178.2" y2="178.2"/><text fill="#000000" font-family="sans-serif" font-size="13" lengthAdjust="spacing" textLength="33.228" x="143.8186" y="172.677">next()</text></g><g class="message" data-participant-1="Bullets" data-participant-2="Scene"><polygon fill="#181818" points="147.8186,203.8,137.8186,207.8,147.8186,211.8,143.8186,207.8" style="stroke:#181818;stroke-width:1;"/><line style="stroke:#181818;stroke-width:1;stroke-dasharray:2.0,2.0;" x1="141.8186" x2="486.9713" y1="207.8" y2="207.8"/><text fill="#000000" font-family="sans-serif" font-size="13" lengthAdjust="spacing" textLength="31.07" x="153.8186" y="202.277">bullet</text></g><path d="M20,222.8 L80.171,222.8 L80.171,230.4 L70.171,240.4 L20,240.4 L20,222.8" fill="#EEEEEE" style="stroke:#000000;stroke-width:1.5;"/><rect fill="none" height="314.0001" style="stroke:#000000;stroke-width:1.5;" width="659.6322" x="20" y="222.8"/><text fill="#000000" font-family="sans-serif" font-size="13" font-weight="bold" lengthAdjust="spacing" textLength="15.171" x="35" y="235.877">alt</text><text fill="#000000" font-family="sans-serif" font-size="11" font-weight="bold" lengthAdjust="spacing" textLength="89.8474" x="95.171" y="235.0189">[bullet == nullptr]</text><g class="message" data-participant-1="Scene" data-participant-2="Scene"><line style="stroke:#181818;stroke-width:1;" x1="136.8186" x2="178.8186" y1="262" y2="262"/><line style="stroke:#181818;stroke-width:1;" x1="178.8186" x2="178.8186" y1="262" y2="275"/><line style="stroke:#181818;stroke-width:1;" x1="137.8186" x2="178.8186" y1="275" y2="275"/><polygon fill="#181818" points="147.8186,271,137.8186,275,147.8186,279,143.8186,275" style="stroke:#181818;stroke-width:1;"/><text fill="#000000" font-family="sans-serif" font-size="13" lengthAdjust="spacing" textLength="132.6001" x="143.8186" y="256.477">continue_check = false</text></g><line style="stroke:#000000;stroke-width:1;stroke-dasharray:2.0,2.0;" x1="20" x2="679.6322" y1="284" y2="284"/><g class="message" data-participant-1="Scene" data-participant-2="Cannon"><polygon fill="#181818" points="309.6249,302.6,319.6249,306.6,309.6249,310.6,313.6249,306.6" style="stroke:#181818;stroke-width:1;"/><line style="stroke:#181818;stroke-width:1;" x1="136.8186" x2="315.6249" y1="306.6" y2="306.6"/><text fill="#000000" font-family="sans-serif" font-size="13" lengthAdjust="spacing" textLength="75.8551" x="143.8186" y="301.077">isShot(bullet)</text></g><g class="message" data-participant-1="Cannon" data-participant-2="Scene"><polygon fill="#181818" points="147.8186,332.2001,137.8186,336.2001,147.8186,340.2001,143.8186,336.2001" style="stroke:#181818;stroke-width:1;"/><line style="stroke:#181818;stroke-width:1;stroke-dasharray:2.0,2.0;" x1="141.8186" x2="325.6249" y1="336.2001" y2="336.2001"/><text fill="#000000" font-family="sans-serif" font-size="13" lengthAdjust="spacing" textLength="128.6222" x="153.8186" y="330.677">bulletShotLaserCanon</text></g><path d="M30,351.2001 L90.171,351.2001 L90.171,358.8001 L80.171,368.8001 L30,368.8001 L30,351.2001" fill="#EEEEEE" style="stroke:#000000;stroke-width:1.5;"/><rect fill="none" height="178.6001" style="stroke:#000000;stroke-width:1.5;" width="639.6322" x="30" y="351.2001"/><text fill="#000000" font-family="sans-serif" font-size="13" font-weight="bold" lengthAdjust="spacing" textLength="15.171" x="45" y="364.2771">alt</text><text fill="#000000" font-family="sans-serif" font-size="11" font-weight="bold" lengthAdjust="spacing" textLength="124.6731" x="105.171" y="363.419">[bulletShotLaserCanon]</text><g class="message" data-participant-1="Scene" data-participant-2="Bullets"><polygon fill="#181818" points="470.9713,386.4001,480.9713,390.4001,470.9713,394.4001,474.9713,390.4001" style="stroke:#181818;stroke-width:1;"/><line style="stroke:#181818;stroke-width:1;" x1="136.8186" x2="476.9713" y1="390.4001" y2="390.4001"/><text fill="#000000" font-family="sans-serif" font-size="13" lengthAdjust="spacing" textLength="83.0701" x="143.8186" y="384.8771">remove(bullet)</text></g><g class="message" data-participant-1="Bullets" data-participant-2="Scene"><polygon fill="#181818" points="147.8186,416.0001,137.8186,420.0001,147.8186,424.0001,143.8186,420.0001" style="stroke:#181818;stroke-width:1;"/><line style="stroke:#181818;stroke-width:1;stroke-dasharray:2.0,2.0;" x1="141.8186" x2="486.9713" y1="420.0001" y2="420.0001"/><text fill="#000000" font-family="sans-serif" font-size="13" lengthAdjust="spacing" textLength="23.842" x="153.8186" y="414.4771">void</text></g><g class="message" data-participant-1="Scene" data-participant-2="Cannon"><polygon fill="#181818" points="309.6249,445.6001,319.6249,449.6001,309.6249,453.6001,313.6249,449.6001" style="stroke:#181818;stroke-width:1;"/><line style="stroke:#181818;stroke-width:1;" x1="136.8186" x2="315.6249" y1="449.6001" y2="449.6001"/><text fill="#000000" font-family="sans-serif" font-size="13" lengthAdjust="spacing" textLength="82.3551" x="143.8186" y="444.0771">takeDamage()</text></g><g class="message" data-participant-1="Cannon" data-participant-2="Scene"><polygon fill="#181818" points="147.8186,475.2001,137.8186,479.2001,147.8186,483.2001,143.8186,479.2001" style="stroke:#181818;stroke-width:1;"/><line style="stroke:#181818;stroke-width:1;stroke-dasharray:2.0,2.0;" x1="141.8186" x2="325.6249" y1="479.2001" y2="479.2001"/><text fill="#000000" font-family="sans-serif" font-size="13" lengthAdjust="spacing" textLength="23.842" x="153.8186" y="473.6771">void</text></g><g class="message" data-participant-1="Scene" data-participant-2="Scene"><line style="stroke:#181818;stroke-width:1;" x1="136.8186" x2="178.8186" y1="508.8001" y2="508.8001"/><line style="stroke:#181818;stroke-width:1;" x1="178.8186" x2="178.8186" y1="508.8001" y2="521.8001"/><line style="stroke:#181818;stroke-width:1;" x1="137.8186" x2="178.8186" y1="521.8001" y2="521.8001"/><polygon fill="#181818" points="147.8186,517.8001,137.8186,521.8001,147.8186,525.8001,143.8186,521.8001" style="stroke:#181818;stroke-width:1;"/><text fill="#000000" font-family="sans-serif" font-size="13" lengthAdjust="spacing" textLength="132.6001" x="143.8186" y="503.2771">continue_check = false</text></g><path d="M297.6001,495.7001 L297.6001,520.7001 L648.6001,520.7001 L648.6001,505.7001 L638.6001,495.7001 L297.6001,495.7001" fill="#FEFFDD" style="stroke:#181818;stroke-width:0.5;"/><path d="M638.6001,495.7001 L638.6001,505.7001 L648.6001,505.7001 L638.6001,495.7001" fill="#FEFFDD" style="stroke:#181818;stroke-width:0.5;"/><text fill="#000000" font-family="sans-serif" font-size="13" lengthAdjust="spacing" textLength="330.2134" x="303.6001" y="512.7771">The laser canon can take damage only on time per check</text><!--SRC=[ZLF1JiCm33qdNs7jD0xxWKhb04XSa3YC6q9LoCmQBKsgnflWxt6IqfOr4XngsSgpt_Dhqgk1Z3QzSWIRe-gm2HeTGWMFNEnZlW4L86MoNw8Rgm8EZLREEyO_nUe-5gc1CqwlEjxFrY85Hj-bxFKjONCHf4miiBlDT1KqkaLzshUUmhER2ROtKcao5qKu2bjrQk_8k3Fc2L033MU6MU_xgpCffjvHHmKEFub9nCJoer2C2UncghoK50TSmNc2fH40TGsEivu6ASIVUZ-K3IW5fZZ3iwqLc11TsURHh7IMEXelH4xMIcFZx2K35yB7vZXl4hx25mmRiFCNNCWfM2TAvbsyESIZedc5lKcTy45rweZRtpJJseMz2oJpel_-5K8upvs3ERR4D_YbHKWl0F8Bu9ZKmI790-_i5mSWqo7q4PPlcq37OcA8drneIlpV]--></g></svg>