<svg xmlns="http://www.w3.org/2000/svg" xmlns:xlink="http://www.w3.org/1999/xlink" contentStyleType="text/css" data-diagram-type="DESCRIPTION" height="544px" preserveAspectRatio="none" style="width:311px;height:544px;background:#FFFFFF;" version="1.1" viewBox="0 0 311 544" width="311px" zoomAndPan="magnify"><defs/><g><!--entity player--><g class="entity" data-entity="player" data-source-line="3" data-uid="ent0002" id="entity_player"><ellipse cx="25.8379" cy="291.22" fill="#F1F1F1" rx="8" ry="8" style="stroke:#181818;stroke-width:0.5;"/><path d="M25.8379,299.22 L25.8379,326.22 M12.8379,307.22 L38.8379,307.22 M25.8379,326.22 L12.8379,341.22 M25.8379,326.22 L38.8379,341.22" fill="none" style="stroke:#181818;stroke-width:0.5;"/><text fill="#000000" font-family="sans-serif" font-size="14" lengthAdjust="spacing" textLength="39.6758" x="6" y="355.7259">Player</text></g><g class="entity" data-entity="start_game" data-source-line="6" data-uid="ent0003" id="entity_start_game"><ellipse cx="226.9839" cy="105.1216" fill="#F1F1F1" rx="61.9739" ry="15.3116" style="stroke:#181818;stroke-width:0.5;"/><text fill="#000000" font-family="sans-serif" font-size="14" lengthAdjust="spacing" textLength="68.4737" x="189.747" y="108.8745">Start game</text></g><g class="entity" data-entity="move_canon" data-source-line="11" data-uid="ent0005" id="entity_move_canon"><ellipse cx="226.9757" cy="321.1211" fill="#F1F1F1" rx="78.3057" ry="18.0611" style="stroke:#181818;stroke-width:0.5;"/><text fill="#000000" font-family="sans-serif" font-size="14" lengthAdjust="spacing" textLength="110.4875" x="168.7319" y="324.8741">Move laser canon</text></g><g class="entity" data-entity="shot" data-source-line="12" data-uid="ent0006" id="entity_shot"><ellipse cx="226.9768" cy="389.1245" fill="#F1F1F1" rx="32.0068" ry="14.9445" style="stroke:#181818;stroke-width:0.5;"/><text fill="#000000" font-family="sans-serif" font-size="14" lengthAdjust="spacing" textLength="28.7979" x="210.4378" y="392.6118">Shot</text></g><g class="entity" data-entity="pause_game" data-source-line="13" data-uid="ent0007" id="entity_pause_game"><ellipse cx="226.9786" cy="455.1157" fill="#F1F1F1" rx="66.7786" ry="15.7557" style="stroke:#181818;stroke-width:0.5;"/><text fill="#000000" font-family="sans-serif" font-size="14" lengthAdjust="spacing" textLength="78.5957" x="184.6808" y="458.8687">Pause game</text></g><g class="entity" data-entity="resume_game" data-source-line="20" data-uid="ent0011" id="entity_resume_game"><ellipse cx="226.9803" cy="522.1221" fill="#F1F1F1" rx="71.0603" ry="16.6121" style="stroke:#181818;stroke-width:0.5;"/><text fill="#000000" font-family="sans-serif" font-size="14" lengthAdjust="spacing" textLength="91.0276" x="178.4664" y="525.875">Resume game</text></g><g class="entity" data-entity="restart_game" data-source-line="21" data-uid="ent0012" id="entity_restart_game"><ellipse cx="226.9814" cy="22.1223" fill="#F1F1F1" rx="68.6114" ry="16.1223" style="stroke:#181818;stroke-width:0.5;"/><text fill="#000000" font-family="sans-serif" font-size="14" lengthAdjust="spacing" textLength="84.0276" x="181.9676" y="25.8752">Restart game</text></g><g class="entity" data-entity="stop_game" data-source-line="22" data-uid="ent0013" id="entity_stop_game"><ellipse cx="226.9815" cy="253.1177" fill="#F1F1F1" rx="61.3915" ry="15.3077" style="stroke:#181818;stroke-width:0.5;"/><text fill="#000000" font-family="sans-serif" font-size="14" lengthAdjust="spacing" textLength="67.7037" x="190.1296" y="256.8707">Stop game</text></g><g class="entity" data-entity="exit_game" data-source-line="23" data-uid="ent0014" id="entity_exit_game"><ellipse cx="226.982" cy="171.1184" fill="#F1F1F1" rx="57.262" ry="15.2784" style="stroke:#181818;stroke-width:0.5;"/><text fill="#000000" font-family="sans-serif" font-size="14" lengthAdjust="spacing" textLength="62.2437" x="192.8601" y="174.8714">Exit game</text></g><!--link player to start_game--><g class="link" data-entity-1="player" data-entity-2="start_game" data-source-line="8" data-uid="lnk4" id="link_player_start_game"><path d="M29.84,282.45 C34.45,247.98 46.11,198.15 75.68,166.12 C101.84,137.76 137.2333,123.7616 169.8833,115.5016" fill="none" id="player-to-start_game" style="stroke:#181818;stroke-width:1;"/><polygon fill="#181818" points="175.7,114.03,165.9938,112.3595,170.8527,115.2563,167.9559,120.1152,175.7,114.03" style="stroke:#181818;stroke-width:1;"/></g><!--link player to move_canon--><g class="link" data-entity-1="player" data-entity-2="move_canon" data-source-line="15" data-uid="lnk8" id="link_player_move_canon"><path d="M45.93,321.12 C69.49,321.12 105,321.12 142.23,321.12" fill="none" id="player-to-move_canon" style="stroke:#181818;stroke-width:1;"/><polygon fill="#181818" points="148.23,321.12,139.23,317.12,143.23,321.12,139.23,325.12,148.23,321.12" style="stroke:#181818;stroke-width:1;"/></g><!--link player to shot--><g class="link" data-entity-1="player" data-entity-2="shot" data-source-line="16" data-uid="lnk9" id="link_player_shot"><path d="M45.93,327.64 C81.95,339.94 154.2616,364.6319 194.7516,378.4519" fill="none" id="player-to-shot" style="stroke:#181818;stroke-width:1;"/><polygon fill="#181818" points="200.43,380.39,193.2046,373.6972,195.698,378.7749,190.6204,381.2684,200.43,380.39" style="stroke:#181818;stroke-width:1;"/></g><!--link player to pause_game--><g class="link" data-entity-1="player" data-entity-2="pause_game" data-source-line="17" data-uid="lnk10" id="link_player_pause_game"><path d="M45.83,339.53 C68.79,361.09 109.27,396.91 148.68,421.12 C161.54,429.02 171.0358,433.752 184.4058,439.352" fill="none" id="player-to-pause_game" style="stroke:#181818;stroke-width:1;"/><polygon fill="#181818" points="189.94,441.67,183.1841,434.5036,185.3282,439.7384,180.0934,441.8825,189.94,441.67" style="stroke:#181818;stroke-width:1;"/></g><!--link restart_game to start_game--><g class="link" data-entity-1="restart_game" data-entity-2="start_game" data-source-line="25" data-uid="lnk15" id="link_restart_game_start_game"><path d="M226.98,38.51 C226.98,53.32 226.98,68.95 226.98,83.51" fill="none" id="restart_game-to-start_game" style="stroke:#181818;stroke-width:1;stroke-dasharray:7.0,7.0;"/><polygon fill="#181818" points="226.98,89.51,230.98,80.51,226.98,84.51,222.98,80.51,226.98,89.51" style="stroke:#181818;stroke-width:1;"/><text fill="#000000" font-family="sans-serif" font-size="13" lengthAdjust="spacing" textLength="41.1841" x="194.98" y="68.597">include</text></g><!--link restart_game to stop_game--><g class="link" data-entity-1="restart_game" data-entity-2="stop_game" data-source-line="26" data-uid="lnk16" id="link_restart_game_stop_game"><path d="M195.91,36.86 C180.25,45.46 161.85,57.5 148.68,72.12 C59.67,170.87 73.46,153.9 97.31,191.62 C115.02,219.62 143.5704,233.4488 172.4504,241.8788" fill="none" id="restart_game-to-stop_game" style="stroke:#181818;stroke-width:1;stroke-dasharray:7.0,7.0;"/><polygon fill="#181818" points="178.21,243.56,170.6914,237.1984,173.4103,242.159,168.4497,244.8779,178.21,243.56" style="stroke:#181818;stroke-width:1;"/><text fill="#000000" font-family="sans-serif" font-size="13" lengthAdjust="spacing" textLength="41.1841" x="76.68" y="187.697">include</text></g><!--link exit_game to stop_game--><g class="link" data-entity-1="exit_game" data-entity-2="stop_game" data-source-line="27" data-uid="lnk17" id="link_exit_game_stop_game"><path d="M226.98,186.75 C226.98,201.39 226.98,217.13 226.98,231.69" fill="none" id="exit_game-to-stop_game" style="stroke:#181818;stroke-width:1;stroke-dasharray:7.0,7.0;"/><polygon fill="#181818" points="226.98,237.69,230.98,228.69,226.98,232.69,222.98,228.69,226.98,237.69" style="stroke:#181818;stroke-width:1;"/><text fill="#000000" font-family="sans-serif" font-size="13" lengthAdjust="spacing" textLength="41.1841" x="194.98" y="216.677">include</text></g><!--link player to exit_game--><g class="link" data-entity-1="player" data-entity-2="exit_game" data-source-line="29" data-uid="lnk18" id="link_player_exit_game"><path d="M46.06,303.88 C69.56,283.11 110.89,247.58 148.68,220.12 C166.03,207.51 181.4467,197.6764 196.9967,188.2664" fill="none" id="player-to-exit_game" style="stroke:#181818;stroke-width:1;"/><polygon fill="#181818" points="202.13,185.16,192.3592,186.3974,197.8523,187.7486,196.501,193.2417,202.13,185.16" style="stroke:#181818;stroke-width:1;"/></g><!--link player to restart_game--><g class="link" data-entity-1="player" data-entity-2="restart_game" data-source-line="30" data-uid="lnk19" id="link_player_restart_game"><path d="M28.73,282.23 C32.45,240.23 43.41,172.94 75.68,125.12 C104.34,82.64 151.4761,55.2142 186.2261,38.9442" fill="none" id="player-to-restart_game" style="stroke:#181818;stroke-width:1;"/><polygon fill="#181818" points="191.66,36.4,181.813,36.5936,187.1318,38.5201,185.2053,43.8388,191.66,36.4" style="stroke:#181818;stroke-width:1;"/></g><!--link player to resume_game--><g class="link" data-entity-1="player" data-entity-2="resume_game" data-source-line="31" data-uid="lnk20" id="link_player_resume_game"><path d="M45.75,359.77 C66.18,397.66 102.14,454.48 148.68,488.12 C159.85,496.19 167.7149,500.5806 180.1849,505.8606" fill="none" id="player-to-resume_game" style="stroke:#181818;stroke-width:1;"/><polygon fill="#181818" points="185.71,508.2,178.9819,501.0074,181.1057,506.2505,175.8627,508.3743,185.71,508.2" style="stroke:#181818;stroke-width:1;"/></g><!--SRC=[TL113e8m43p3ApPSEE43F7WpdaoCFe0qPOKcq99jQ_JtbYAoDNZRcSxEJYVhyUx06I3LTWuQHIYTCZhFCo6T8IWklNWX5I0iZ74CJoNSd207LXAYpZDlKGgBKCnqAmQC2tQ2zGJ3qhmDLNL8-JBgWnTgP5Pdyq3emqWWXJOw6Ww1h2FaHplZvdDXOFn5X74DCqvm8mptv1cZ6IEI_H9EK-W1jMSNhsZzm4vInFDEeafh8cI5y3BDoBiquw_Y-5JC1WDQyd5BsF76zw2qx7s3MwBF2QRvcluH91Mj2JYRVYzzMEfv0m00]--></g></svg>